<?xml version="1.0" standalone="no"?>
<!DOCTYPE svg PUBLIC "-//W3C//DTD SVG 20010904//EN"
 "http://www.w3.org/TR/2001/REC-SVG-20010904/DTD/svg10.dtd">
<svg version="1.0" xmlns="http://www.w3.org/2000/svg"
 width="42.000000pt" height="27.000000pt" viewBox="0 0 42.000000 27.000000"
 preserveAspectRatio="xMidYMid meet">

<g transform="translate(0.000000,27.000000) scale(0.100000,-0.100000)"
fill="#000000" stroke="none">
<path d="M220 251 c20 -4 42 -11 50 -15 8 -4 6 0 -4 8 -11 9 -34 15 -50 15
-31 -1 -31 -1 4 -8z"/>
<path d="M282 195 c0 -16 2 -22 5 -12 2 9 2 23 0 30 -3 6 -5 -1 -5 -18z"/>
<path d="M243 203 c-7 -2 -12 -19 -12 -36 l2 -32 4 29 c4 22 7 26 14 15 7 -11
9 -9 9 9 0 12 -1 22 -2 21 -2 0 -9 -3 -15 -6z"/>
<path d="M201 164 c0 -11 3 -14 6 -6 3 7 2 16 -1 19 -3 4 -6 -2 -5 -13z"/>
<path d="M20 78 c0 -15 5 -28 10 -28 6 0 10 6 10 14 0 24 28 27 33 3 3 -16 5
-14 6 9 1 28 -2 31 -29 31 -26 0 -30 -4 -30 -29z"/>
<path d="M107 104 c-4 -4 -7 -17 -7 -29 0 -17 6 -22 26 -22 21 0 25 3 22 26
-3 25 -26 39 -41 25z"/>
<path d="M170 81 c0 -25 4 -31 21 -31 16 0 20 5 17 27 -2 17 -10 29 -20 31
-14 3 -18 -3 -18 -27z m30 -7 c0 -8 -4 -12 -10 -9 -5 3 -10 10 -10 16 0 5 5 9
10 9 6 0 10 -7 10 -16z"/>
<path d="M230 80 c0 -27 3 -31 23 -28 16 2 22 10 22 28 0 18 -6 26 -22 28 -20
3 -23 -1 -23 -28z m27 -12 c-3 -8 -6 -5 -6 6 -1 11 2 17 5 13 3 -3 4 -12 1
-19z"/>
<path d="M307 104 c-4 -4 -7 -18 -7 -31 0 -18 5 -24 18 -21 10 2 17 12 17 27
0 24 -15 37 -28 25z m23 -30 c0 -8 -4 -12 -10 -9 -5 3 -10 10 -10 16 0 5 5 9
10 9 6 0 10 -7 10 -16z"/>
</g>
</svg>
