<?xml version="1.0" standalone="no"?>
<!DOCTYPE svg PUBLIC "-//W3C//DTD SVG 20010904//EN"
 "http://www.w3.org/TR/2001/REC-SVG-20010904/DTD/svg10.dtd">
<svg version="1.0" xmlns="http://www.w3.org/2000/svg"
 width="100.000000pt" height="50.000000pt" viewBox="0 0 100.000000 50.000000"
 preserveAspectRatio="xMidYMid meet">

<g transform="translate(0.000000,50.000000) scale(0.100000,-0.100000)"
fill="#000000" stroke="none">
<path d="M483 483 c-13 -2 -29 -13 -36 -24 -8 -10 -17 -17 -20 -14 -4 3 -5 2
-2 -2 3 -3 -1 -14 -7 -23 -7 -9 -1 -4 14 11 14 15 30 24 34 21 4 -4 4 -2 1 5
-10 16 108 5 151 -15 33 -15 62 -56 62 -87 0 -28 -29 -74 -58 -89 -15 -9 -21
-15 -13 -16 7 0 28 15 47 34 96 96 -20 229 -173 199z m60 -10 c-7 -2 -21 -2
-30 0 -10 3 -4 5 12 5 17 0 24 -2 18 -5z"/>
<path d="M468 382 c13 -14 22 -15 39 -7 l22 10 -22 7 c-12 3 -30 6 -39 7 -17
1 -17 0 0 -17z"/>
<path d="M544 391 c3 -4 18 -6 33 -4 21 3 24 2 14 -6 -12 -8 -13 -14 -3 -36 7
-14 17 -23 22 -20 16 10 12 62 -6 69 -24 9 -66 7 -60 -3z"/>
<path d="M541 361 c-11 -7 -11 -9 0 -14 12 -4 11 -7 -1 -16 -13 -10 -13 -11 0
-11 13 0 13 -1 0 -10 -13 -9 -13 -11 0 -20 13 -9 13 -10 0 -10 -13 0 -13 -1 0
-10 26 -16 42 11 34 58 -7 44 -10 47 -33 33z"/>
<path d="M471 324 c-1 -12 6 -27 14 -34 13 -11 15 -8 15 14 0 15 -4 25 -9 22
-5 -4 -12 0 -14 6 -3 7 -6 3 -6 -8z"/>
<path d="M61 201 c-19 -12 -11 -116 9 -116 10 0 16 12 18 36 3 33 5 35 37 35
32 0 35 -2 35 -31 0 -37 6 -46 26 -38 16 6 19 60 4 98 -9 24 -11 25 -37 11
-24 -12 -32 -12 -54 -1 -14 8 -31 10 -38 6z"/>
<path d="M268 194 c-24 -12 -28 -21 -28 -58 0 -45 24 -72 36 -41 8 19 40 19
48 0 3 -8 11 -12 18 -10 9 4 12 21 10 54 -3 40 -8 51 -28 60 -29 13 -23 14
-56 -5z m50 -36 c-3 -7 -11 -13 -18 -13 -7 0 -15 6 -17 13 -3 7 4 12 17 12 13
0 20 -5 18 -12z"/>
<path d="M427 202 c-27 -3 -28 -5 -25 -60 3 -53 5 -57 28 -57 14 0 37 6 53 13
22 10 27 19 27 47 0 28 -5 37 -27 48 -16 7 -41 11 -56 9z m43 -57 c0 -16 -6
-25 -15 -25 -9 0 -15 9 -15 25 0 16 6 25 15 25 9 0 15 -9 15 -25z"/>
<path d="M560 200 c-7 -4 -10 -29 -8 -61 3 -52 4 -54 33 -55 56 -1 75 14 75
62 0 37 -3 43 -27 49 -40 11 -61 13 -73 5z m65 -55 c0 -11 -8 -21 -17 -23 -14
-3 -18 3 -18 23 0 20 4 26 18 23 9 -2 17 -12 17 -23z"/>
<path d="M727 194 c-24 -13 -28 -20 -25 -52 2 -30 8 -38 30 -46 18 -7 35 -6
53 2 20 9 25 19 25 50 0 32 -5 41 -25 50 -31 14 -24 15 -58 -4z m53 -49 c0
-18 -5 -25 -20 -25 -15 0 -20 7 -20 25 0 18 5 25 20 25 15 0 20 -7 20 -25z"/>
</g>
</svg>
