<?xml version="1.0" standalone="no"?>
<!DOCTYPE svg PUBLIC "-//W3C//DTD SVG 20010904//EN"
 "http://www.w3.org/TR/2001/REC-SVG-20010904/DTD/svg10.dtd">
<svg version="1.0" xmlns="http://www.w3.org/2000/svg"
 width="100.000000pt" height="100.000000pt" viewBox="0 0 100.000000 100.000000"
 preserveAspectRatio="xMidYMid meet">

<g transform="translate(0.000000,100.000000) scale(0.100000,-0.100000)"
fill="#000000" stroke="none">
<path d="M510 973 c-33 -10 -59 -26 -55 -33 3 -4 -2 -13 -10 -20 -7 -6 -11
-19 -8 -27 4 -9 2 -14 -3 -10 -6 3 -10 -3 -11 -13 -1 -14 6 -10 30 16 63 68
144 49 197 -46 21 -38 25 -58 25 -125 0 -89 -14 -140 -52 -188 l-25 -32 30 32
c77 80 83 283 12 382 -30 43 -96 75 -130 64z m54 -31 c3 -5 -8 -6 -24 -4 -19
3 -44 -4 -67 -17 l-38 -22 28 26 c28 25 90 35 101 17z"/>
<path d="M458 780 c14 -6 22 -18 22 -34 l0 -25 27 25 c23 21 25 27 13 34 -8 6
-31 9 -50 9 -31 0 -32 -1 -12 -9z"/>
<path d="M545 780 c3 -6 18 -7 33 -4 26 7 26 6 11 -12 -14 -17 -14 -24 1 -78
19 -70 30 -57 30 34 0 62 -7 70 -56 70 -14 0 -22 -4 -19 -10z"/>
<path d="M541 724 c-12 -14 -12 -17 0 -25 12 -8 12 -10 0 -18 -11 -7 -11 -9 0
-14 12 -5 12 -7 0 -15 -11 -8 -11 -10 0 -15 12 -5 12 -7 0 -15 -11 -8 -11 -10
0 -15 12 -5 12 -7 0 -15 -11 -8 -11 -10 0 -15 12 -5 12 -7 0 -15 -11 -8 -11
-11 0 -16 11 -5 11 -7 2 -12 -17 -7 -17 -25 -1 -21 27 5 39 60 32 145 -3 45
-9 82 -13 82 -3 -1 -12 -8 -20 -16z"/>
<path d="M470 638 c1 -18 7 -44 15 -58 14 -25 14 -24 15 18 0 26 -6 50 -15 58
-13 14 -15 12 -15 -18z"/>
<path d="M266 391 c-26 -27 -27 -32 -24 -122 2 -75 6 -94 18 -94 8 0 17 11 20
25 6 32 33 32 40 1 3 -13 11 -26 18 -29 9 -3 12 22 12 100 0 103 0 104 -29
125 l-28 22 -27 -28z m51 -85 c-4 -9 -11 -16 -17 -16 -15 0 -24 26 -16 47 6
15 8 15 23 1 9 -9 13 -24 10 -32z"/>
<path d="M54 397 c-2 -7 -3 -60 -2 -118 2 -84 6 -104 18 -104 12 0 16 16 18
73 3 64 5 72 18 61 11 -9 18 -9 26 -1 22 22 27 12 30 -60 2 -57 6 -73 18 -73
12 0 15 18 15 100 0 55 -4 108 -8 118 -7 17 -9 17 -38 -3 l-30 -22 -23 21
c-26 24 -35 26 -42 8z"/>
<path d="M404 396 c-3 -7 -3 -59 -2 -117 l3 -104 29 0 c16 -1 39 7 52 18 22
17 24 26 24 97 0 74 -1 79 -27 96 -34 22 -72 27 -79 10z m66 -106 c0 -38 -4
-50 -15 -50 -11 0 -15 12 -15 50 0 38 4 50 15 50 11 0 15 -12 15 -50z"/>
<path d="M554 396 c-3 -7 -3 -59 -2 -117 3 -101 4 -104 26 -102 12 2 22 -3 22
-9 0 -6 14 1 30 17 28 27 30 33 30 105 0 65 -3 80 -21 96 -24 21 -78 28 -85
10z m74 -99 c3 -39 -13 -72 -29 -61 -5 3 -9 28 -9 55 0 43 3 50 18 47 12 -2
18 -14 20 -41z"/>
<path d="M728 389 c-26 -19 -28 -26 -28 -93 0 -67 2 -74 30 -101 l30 -29 25
24 c23 21 25 31 25 103 0 69 -3 81 -22 98 -28 23 -27 23 -60 -2z m47 -100 c0
-32 -4 -44 -15 -44 -16 0 -26 54 -16 82 12 30 31 6 31 -38z"/>
</g>
</svg>
